<svg xmlns="http://www.w3.org/2000/svg" xmlns:xlink="http://www.w3.org/1999/xlink" version="1.1" x="0px" y="0px" viewBox="0 0 100 125" enable-background="new 0 0 100 100" xml:space="preserve"><path stroke-linejoin="bevel" stroke-width="2" stroke="#000000" fill-opacity="0" id="svg_1" d="m78.316,41.869l0,3.506c-18.797,-2.463 -37.834,-2.463 -56.631,0l0,-3.506c-5.598,-0.519 -11.174,-0.405 -16.685,1.648l2.888,11.988c0,0 3.636,-1.024 8.021,-1.415c0,1.434 0,2.868 0,4.303c22.587,-3.577 45.595,-3.577 68.182,0c0,-1.434 0,-2.869 0,-4.303c4.38499,0.391 8.021,1.415 8.021,1.415l2.888,-11.988c-5.511,-2.053 -11.087,-2.167 -16.684,-1.648z" fill="#000000"/>
  <rect transform="rotate(-6.19951, 11.3984, 81.7715)" id="svg_2" height="77.51953" width="3.79688" y="43.01171" x="9.5" stroke-linecap="null" stroke-linejoin="bevel" stroke-dasharray="null" stroke-width="2" stroke="#000000" fill="#000000"/>
  <rect id="svg_3" transform="rotate(6.19951, 88.8945, 81.9297)" height="77.51953" width="3.79688" y="43.16992" x="86.99609" stroke-linecap="null" stroke-linejoin="bevel" stroke-dasharray="null" stroke-width="2" stroke="#000000" fill="#000000"/></svg>
